<?xml version="1.0" standalone="no"?>
<!DOCTYPE svg PUBLIC "-//W3C//DTD SVG 20010904//EN"
 "http://www.w3.org/TR/2001/REC-SVG-20010904/DTD/svg10.dtd">
<svg version="1.0" xmlns="http://www.w3.org/2000/svg"
 width="512.000000pt" height="512.000000pt" viewBox="0 0 512.000000 512.000000"
 preserveAspectRatio="xMidYMid meet">
<metadata>
Created by potrace 1.14, written by Peter Selinger 2001-2017
</metadata>
<g transform="translate(0.000000,512.000000) scale(0.100000,-0.100000)"
fill="#000000" stroke="none">
<path d="M1454 3796 c-38 -38 -35 -7 -34 -328 0 -102 4 -197 9 -210 14 -36 18
-39 241 -165 45 -26 194 -112 385 -223 83 -48 170 -98 195 -112 128 -72 247
-143 267 -161 41 -36 21 -70 -75 -124 -37 -21 -75 -42 -84 -48 -9 -5 -47 -28
-85 -49 -37 -22 -189 -110 -338 -196 -148 -86 -277 -159 -285 -163 -61 -26
-207 -126 -218 -149 -8 -18 -12 -81 -13 -200 0 -338 -3 -306 35 -344 61 -61
64 -60 441 161 82 48 157 91 210 119 11 6 31 19 45 27 31 20 594 345 658 380
50 28 283 162 715 413 64 38 102 67 112 86 36 69 10 114 -100 180 -47 27 -88
50 -92 50 -4 0 -14 6 -22 14 -9 8 -38 26 -66 41 -27 14 -66 36 -85 47 -61 35
-605 349 -950 548 -63 37 -205 118 -315 182 -110 64 -218 126 -240 138 -22 12
-51 30 -65 39 -59 40 -150 81 -180 81 -23 0 -41 -9 -66 -34z"/>
</g>
</svg>
